<?xml version="1.0" encoding="UTF-8" standalone="no"?>
<!-- Created with Inkscape (http://www.inkscape.org/) -->

<svg
   xmlns:dc="http://purl.org/dc/elements/1.1/"
   xmlns:cc="http://creativecommons.org/ns#"
   xmlns:rdf="http://www.w3.org/1999/02/22-rdf-syntax-ns#"
   xmlns:svg="http://www.w3.org/2000/svg"
   xmlns="http://www.w3.org/2000/svg"
   xmlns:xlink="http://www.w3.org/1999/xlink"
   xmlns:sodipodi="http://sodipodi.sourceforge.net/DTD/sodipodi-0.dtd"
   xmlns:inkscape="http://www.inkscape.org/namespaces/inkscape"
   width="500"
   height="745"
   viewBox="0 0 132.29166 197.11459"
   version="1.1"
   id="svg4746"
   inkscape:version="0.92.1 r15371"
   sodipodi:docname="abstract.svg">
  <defs
     id="defs4740">
    <linearGradient
       inkscape:collect="always"
       id="linearGradient6050">
      <stop
         style="stop-color:#ff6095;stop-opacity:1"
         offset="0"
         id="stop6046" />
      <stop
         style="stop-color:#a13bff;stop-opacity:0.99270076"
         offset="1"
         id="stop6048" />
    </linearGradient>
    <clipPath
       clipPathUnits="userSpaceOnUse"
       id="clipPath6631">
      <path
         inkscape:connector-curvature="0"
         style="opacity:1;vector-effect:none;fill:#b28cf8;fill-opacity:1;stroke:none;stroke-width:3.83435464;stroke-linecap:butt;stroke-linejoin:miter;stroke-miterlimit:4;stroke-dasharray:none;stroke-dashoffset:0;stroke-opacity:1"
         d="M 7.4393393,-70.236577 V 4.903021 H 34.447509 V 59.026195 H 7.4393393 V 231.14982 H 33.256368 V 202.53193 H 184.86675 v 28.61789 h 25.40103 V 59.026195 H 160.56126 V 4.903021 h 49.70652 v -75.139598 h -25.40103 v 27.540444 H 33.256368 v -27.540444 z"
         id="path6633" />
    </clipPath>
    <clipPath
       clipPathUnits="userSpaceOnUse"
       id="clipPath6201">
      <rect
         y="-4.0905404"
         x="7.4392543"
         height="301.38635"
         width="202.82848"
         id="rect6203"
         style="opacity:1;vector-effect:none;fill:#b28cf8;fill-opacity:1;stroke:none;stroke-width:3.83435464;stroke-linecap:butt;stroke-linejoin:miter;stroke-miterlimit:4;stroke-dasharray:none;stroke-dashoffset:0;stroke-opacity:1" />
    </clipPath>
    <clipPath
       clipPathUnits="userSpaceOnUse"
       id="clipPath6207">
      <rect
         y="-4.0905404"
         x="7.4392543"
         height="301.38635"
         width="202.82848"
         id="rect6209"
         style="opacity:1;vector-effect:none;fill:#b28cf8;fill-opacity:1;stroke:none;stroke-width:3.83435464;stroke-linecap:butt;stroke-linejoin:miter;stroke-miterlimit:4;stroke-dasharray:none;stroke-dashoffset:0;stroke-opacity:1" />
    </clipPath>
    <clipPath
       clipPathUnits="userSpaceOnUse"
       id="clipPath6636">
      <path
         id="path6638"
         d="M 7.4393393,-70.236577 V 4.903021 H 34.447509 V 59.026195 H 7.4393393 V 231.14982 H 33.256368 V 202.53193 H 184.86675 v 28.61789 h 25.40103 V 59.026195 H 160.56126 V 4.903021 h 49.70652 v -75.139598 h -25.40103 v 27.540444 H 33.256368 v -27.540444 z"
         style="opacity:1;vector-effect:none;fill:#b28cf8;fill-opacity:1;stroke:none;stroke-width:3.83435464;stroke-linecap:butt;stroke-linejoin:miter;stroke-miterlimit:4;stroke-dasharray:none;stroke-dashoffset:0;stroke-opacity:1"
         inkscape:connector-curvature="0" />
    </clipPath>
    <clipPath
       clipPathUnits="userSpaceOnUse"
       id="clipPath4709">
      <path
         inkscape:connector-curvature="0"
         style="opacity:1;vector-effect:none;fill:#b28cf8;fill-opacity:1;stroke:none;stroke-width:3.83435464;stroke-linecap:butt;stroke-linejoin:miter;stroke-miterlimit:4;stroke-dasharray:none;stroke-dashoffset:0;stroke-opacity:1"
         d="M 7.4393393,-70.236577 V 4.903021 H 34.447509 V 59.026195 H 7.4393393 V 231.14982 H 33.256368 V 202.53193 H 184.86675 v 28.61789 h 25.40103 V 59.026195 H 160.56126 V 4.903021 h 49.70652 v -75.139598 h -25.40103 v 27.540444 H 33.256368 v -27.540444 z"
         id="path4707" />
    </clipPath>
    <clipPath
       clipPathUnits="userSpaceOnUse"
       id="clipPath4721">
      <rect
         y="-4.0905404"
         x="7.4392543"
         height="301.38635"
         width="202.82848"
         id="rect4719"
         style="opacity:1;vector-effect:none;fill:#b28cf8;fill-opacity:1;stroke:none;stroke-width:3.83435464;stroke-linecap:butt;stroke-linejoin:miter;stroke-miterlimit:4;stroke-dasharray:none;stroke-dashoffset:0;stroke-opacity:1" />
    </clipPath>
    <clipPath
       clipPathUnits="userSpaceOnUse"
       id="clipPath4725">
      <rect
         y="-4.0905404"
         x="7.4392543"
         height="301.38635"
         width="202.82848"
         id="rect4723"
         style="opacity:1;vector-effect:none;fill:#b28cf8;fill-opacity:1;stroke:none;stroke-width:3.83435464;stroke-linecap:butt;stroke-linejoin:miter;stroke-miterlimit:4;stroke-dasharray:none;stroke-dashoffset:0;stroke-opacity:1" />
    </clipPath>
    <clipPath
       clipPathUnits="userSpaceOnUse"
       id="clipPath4729">
      <path
         id="path4727"
         d="M 7.4393393,-70.236577 V 4.903021 H 34.447509 V 59.026195 H 7.4393393 V 231.14982 H 33.256368 V 202.53193 H 184.86675 v 28.61789 h 25.40103 V 59.026195 H 160.56126 V 4.903021 h 49.70652 v -75.139598 h -25.40103 v 27.540444 H 33.256368 v -27.540444 z"
         style="opacity:1;vector-effect:none;fill:#b28cf8;fill-opacity:1;stroke:none;stroke-width:3.83435464;stroke-linecap:butt;stroke-linejoin:miter;stroke-miterlimit:4;stroke-dasharray:none;stroke-dashoffset:0;stroke-opacity:1"
         inkscape:connector-curvature="0" />
    </clipPath>
    <linearGradient
       inkscape:collect="always"
       xlink:href="#linearGradient6050"
       id="linearGradient5449"
       gradientUnits="userSpaceOnUse"
       gradientTransform="matrix(0.23503543,0.12150179,-0.12150179,0.23503543,82.204862,0.27078072)"
       x1="148.98814"
       y1="573.6026"
       x2="460.43198"
       y2="573.6026" />
    <linearGradient
       inkscape:collect="always"
       xlink:href="#linearGradient6050"
       id="linearGradient5451"
       gradientUnits="userSpaceOnUse"
       x1="471.61581"
       y1="179.67181"
       x2="639.86139"
       y2="179.67181" />
    <linearGradient
       inkscape:collect="always"
       xlink:href="#linearGradient6050"
       id="linearGradient5453"
       gradientUnits="userSpaceOnUse"
       x1="463.96564"
       y1="860.8255"
       x2="739.35461"
       y2="860.8255" />
    <linearGradient
       inkscape:collect="always"
       xlink:href="#linearGradient6050"
       id="linearGradient5455"
       gradientUnits="userSpaceOnUse"
       x1="34.939342"
       y1="257.68958"
       x2="93.501312"
       y2="257.68958" />
    <linearGradient
       inkscape:collect="always"
       xlink:href="#linearGradient6050"
       id="linearGradient5457"
       gradientUnits="userSpaceOnUse"
       x1="77.541092"
       y1="208.73071"
       x2="333.78488"
       y2="208.73071" />
    <linearGradient
       inkscape:collect="always"
       xlink:href="#linearGradient6050"
       id="linearGradient5459"
       gradientUnits="userSpaceOnUse"
       gradientTransform="matrix(0.32201853,0.05612398,-0.04542889,0.26065409,1.39578,-139.52393)"
       x1="463.96564"
       y1="860.8255"
       x2="739.35461"
       y2="860.8255" />
  </defs>
  <sodipodi:namedview
     id="base"
     pagecolor="#ffffff"
     bordercolor="#666666"
     borderopacity="1.0"
     inkscape:pageopacity="0.0"
     inkscape:pageshadow="2"
     inkscape:zoom="0.35"
     inkscape:cx="-2137.386"
     inkscape:cy="560"
     inkscape:document-units="mm"
     inkscape:current-layer="layer1"
     showgrid="false"
     inkscape:window-width="3840"
     inkscape:window-height="2004"
     inkscape:window-x="-16"
     inkscape:window-y="-16"
     inkscape:window-maximized="1"
     units="px" />
  <metadata
     id="metadata4743">
    <rdf:RDF>
      <cc:Work
         rdf:about="">
        <dc:format>image/svg+xml</dc:format>
        <dc:type
           rdf:resource="http://purl.org/dc/dcmitype/StillImage" />
        <dc:title></dc:title>
      </cc:Work>
    </rdf:RDF>
  </metadata>
  <g
     inkscape:label="Layer 1"
     inkscape:groupmode="layer"
     id="layer1"
     transform="translate(0,-99.8854)">
    <g
       inkscape:tile-y0="-4.0907064"
       inkscape:tile-x0="7.4393391"
       id="use6662"
       transform="matrix(0.65223429,0,0,0.65402532,-4.8521921,102.56084)">
      <path
         inkscape:connector-curvature="0"
         style="opacity:1;vector-effect:none;fill:#b28cf8;fill-opacity:1;stroke:none;stroke-width:14.49204922;stroke-linecap:butt;stroke-linejoin:miter;stroke-miterlimit:4;stroke-dasharray:none;stroke-dashoffset:0;stroke-opacity:1"
         d="M 28.117188,-15.460938 V 268.53125 H 130.19531 V 473.0918 H 28.117188 v 650.5469 h 97.576172 v -108.1621 h 573.01562 v 108.1621 h 96.00391 V 473.0918 H 606.8457 V 268.53125 H 794.71289 V -15.460938 H 698.70898 V 88.628906 H 125.69336 V -15.460938 Z"
         transform="scale(0.26458333)"
         id="path5407" />
      <path
         style="fill:url(#linearGradient5449);fill-opacity:1;stroke:#c143ff;stroke-width:1;stroke-linecap:butt;stroke-linejoin:miter;stroke-miterlimit:4;stroke-dasharray:none;stroke-opacity:1"
         d="M 135.64598,139.59118 C 91.42702,119.76082 29.868817,150.45277 31.40325,202.1396 c 5.796054,8.76659 18.528875,6.4985 27.607003,6.92887 27.371037,-3.62913 53.119257,-18.67109 69.560427,-40.89946 4.76313,-6.44824 20.10764,-20.24291 7.41982,-26.15193 -0.59078,-0.76232 -0.55182,-1.53151 -0.34452,-2.4259 z"
         id="path5409"
         inkscape:connector-curvature="0" />
      <path
         inkscape:connector-curvature="0"
         style="fill:url(#linearGradient5451);fill-opacity:1;stroke:#c143ff;stroke-width:3.77952766;stroke-linecap:butt;stroke-linejoin:miter;stroke-miterlimit:4;stroke-dasharray:none;stroke-opacity:1"
         d="m 564.50977,55.865234 c -16.76297,-0.16134 -33.7252,3.377964 -48.83399,9.431641 -29.3328,12.57563 -43.14208,44.664725 -42.11719,75.099605 0.36964,53.82959 27.00714,103.65733 56.69336,146.9961 3.90781,5.32103 7.97877,10.52113 12.19922,15.59765 21.53352,-11.28682 41.86965,-24.85003 62.00977,-38.36523 25.0653,-19.63855 28.61835,-53.13542 32.50586,-82.45898 3.55101,-28.05386 -2.34204,-56.80318 -17.20703,-80.89454 -0.75586,-4.880615 -7.89604,-14.854958 -10.60157,-22.566402 l 2.99414,-10.068359 c -14.3159,-8.74756 -30.87961,-12.610145 -47.64257,-12.771485 z"
         transform="scale(0.26458333)"
         id="path5411" />
      <path
         inkscape:connector-curvature="0"
         style="fill:url(#linearGradient5453);fill-opacity:1;stroke:#c143ff;stroke-width:3.77952766;stroke-linecap:butt;stroke-linejoin:miter;stroke-miterlimit:4;stroke-dasharray:none;stroke-opacity:1"
         d="m 624.4375,740.08984 c -66.6274,-0.35718 -135.55973,42.13856 -152.3457,108.44727 -7.80254,35.95468 -12.02007,77.64109 10.76172,109.32812 12.69649,17.58717 33.31945,28.60028 55.06054,21.54493 46.33486,-6.21721 90.32821,-25.27793 130.00977,-49.42578 23.67352,-15.14941 31.00899,-44.4419 39.53515,-69.44922 1.24615,-20.07285 15.91814,-33.86625 28.3379,-47.9668 l 1.61523,-2.18555 -0.33203,-3.96484 c -14.01381,-33.51383 -51.17967,-52.78295 -84.38867,-63.49609 -9.26541,-1.85561 -18.73571,-2.78101 -28.25391,-2.83204 z"
         transform="scale(0.26458333)"
         id="path5413" />
      <path
         style="fill:url(#linearGradient5455);fill-opacity:1;stroke:#c143ff;stroke-width:1;stroke-linecap:butt;stroke-linejoin:miter;stroke-miterlimit:4;stroke-dasharray:none;stroke-opacity:1"
         d="m 93.009796,260.38407 c -2.178709,-11.67691 -8.837237,-23.61537 -20.624348,-27.71834 -10.65365,-4.3034 -22.811342,1.29687 -28.979949,10.40997 -5.869595,7.33888 -9.058403,17.07714 -7.624193,26.41059 2.62115,5.99288 7.900631,10.79661 13.48176,14.06072 10.685321,4.38013 35.999458,-14.80732 43.74673,-23.16294"
         id="path5415"
         inkscape:connector-curvature="0"
         sodipodi:nodetypes="cccccc" />
      <path
         inkscape:connector-curvature="0"
         style="fill:#2affd5;stroke:#1334ff;stroke-width:18.89763832;stroke-linecap:butt;stroke-linejoin:miter;stroke-miterlimit:4;stroke-dasharray:none;stroke-opacity:1"
         d="m 155.03125,379.64844 c -0.43631,0.01 -0.87398,0.0614 -1.30078,0.12695 -2.90173,0.44644 -5.82703,0.87515 -8.63672,1.72656 -6.70919,2.03309 -13.67757,3.61109 -19.86328,6.91016 -69.186169,36.89926 -41.306649,135.68746 -54.410158,207.27734 24.49764,-16.48917 42.707758,-39.90943 57.554688,-65.05859 20.25428,-28.39041 40.39033,-60.31807 38.15234,-96.71484 -4.49171,-16.08231 4.68408,-40.72361 -6.75,-52.41407 -2.02543,-2.02541 0.60987,0.20395 -2.59179,-0.86328 -0.38624,-0.12873 -0.46831,-0.76463 -0.86328,-0.86328 -0.41894,-0.10469 -0.85471,-0.13673 -1.29102,-0.12695 z"
         transform="scale(0.26458333)"
         id="path5417" />
      <rect
         y="71.048965"
         x="-23.588449"
         height="54.123199"
         width="58.035717"
         id="rect5419"
         style="opacity:1;vector-effect:none;fill:#2affd5;fill-opacity:1;stroke:#1334ff;stroke-width:5;stroke-linecap:butt;stroke-linejoin:miter;stroke-miterlimit:4;stroke-dasharray:none;stroke-dashoffset:0;stroke-opacity:1"
         clip-path="url(#clipPath6631)" />
      <path
         inkscape:connector-curvature="0"
         style="fill:url(#linearGradient5457);fill-opacity:1;stroke:#c143ff;stroke-width:3.77952766;stroke-linecap:butt;stroke-linejoin:miter;stroke-miterlimit:4;stroke-dasharray:none;stroke-opacity:1"
         d="m 222.38867,84.123047 c -1.26039,-0.01954 -2.52543,-0.01263 -3.79687,0.02148 C 115.94368,95.974581 56.370457,219.18308 87.882812,312.37695 c 20.854878,25.7374 57.385348,21.76405 86.679688,18.8086 32.32609,-1.8712 64.26329,-13.87087 86.99609,-37.48438 37.42551,-35.45776 60.0145,-84.48428 70.14649,-134.46875 0.90059,-8.04763 -1.29531,-21.57944 -12.4961,-19.5918 -24.05066,-28.88689 -57.74804,-54.911782 -96.82031,-55.517573 z"
         transform="scale(0.26458333)"
         id="path5421" />
      <path
         style="fill:#2affd5;stroke:#1334ff;stroke-width:5;stroke-linecap:butt;stroke-linejoin:miter;stroke-miterlimit:4;stroke-dasharray:none;stroke-opacity:1"
         d="m 190.11751,124.48348 c -2.58977,0.38085 -5.20602,0.61063 -7.76903,1.14257 -23.45318,4.86764 -22.20446,41.6404 -30.39194,60.09814 8.38142,-2.93552 17.65864,-5.11661 23.96753,-11.82615 3.53238,-3.80796 7.20929,-7.53412 10.0707,-11.90367 6.13991,-8.89887 9.88881,-19.87505 8.43979,-30.75884 -0.13783,-1.17781 -4.43281,-5.56384 -4.31705,-6.75205 z"
         id="path5423"
         inkscape:connector-curvature="0" />
      <path
         style="fill:#2affd5;stroke:#1334ff;stroke-width:5;stroke-linecap:butt;stroke-linejoin:miter;stroke-miterlimit:4;stroke-dasharray:none;stroke-opacity:1"
         d="m 102.82906,215.87929 c -1.89952,-2.70449 -4.40699,-5.03136 -5.684335,-8.13534 -0.12058,-3.78171 -0.266831,-7.71122 1.17586,-11.289 0.835142,-2.76001 2.895805,-5.31861 5.724495,-6.15939 2.03571,-0.34078 3.8296,1.03594 5.09159,2.47908 0.75517,0.79908 1.34308,1.74739 2.17998,2.46283 1.27782,1.52421 0.73877,3.61421 0.67884,5.42327 0.12298,1.00764 -0.20219,1.94539 -0.38534,2.92391 -0.42947,2.392 -0.65357,5.07707 -2.48851,6.87729 -2.3236,2.37312 -5.97643,3.02456 -7.9637,5.7772 -0.0523,0.10856 -0.10461,0.21712 -0.15691,0.32568"
         id="path5425"
         inkscape:connector-curvature="0" />
      <path
         inkscape:connector-curvature="0"
         style="fill:#2affd5;stroke:#1334ff;stroke-width:18.89763832;stroke-linecap:butt;stroke-linejoin:miter;stroke-miterlimit:4;stroke-dasharray:none;stroke-opacity:1"
         d="m 396.46484,190.09375 c -6.38018,-0.20143 -12.35077,4.95781 -13.68164,11.21875 -2.97123,17.11181 -3.78484,34.64899 -2.20508,51.95703 1.09641,7.76741 0.92822,16.13893 5.35938,22.9668 7.71969,12.33461 21.50421,18.46564 32.93555,26.67383 5.17542,-7.99601 12.18956,-15.75684 12.6914,-25.75 2.74538,-6.85008 -1.58948,-13.9528 -4.88867,-19.75586 -5.26775,-4.45393 -9.51231,-9.9976 -9.23633,-17.26758 L 417.14648,239 c -2.90868,-11.59075 -4.90376,-23.43037 -8.67187,-34.79492 0.0548,-5.83613 -3.26719,-12.20422 -9.26367,-13.6836 -0.91586,-0.25994 -1.83464,-0.39895 -2.7461,-0.42773 z"
         transform="scale(0.26458333)"
         id="path5427" />
      <path
         inkscape:connector-curvature="0"
         style="fill:#2affd5;stroke:#1334ff;stroke-width:18.89763832;stroke-linecap:butt;stroke-linejoin:miter;stroke-miterlimit:4;stroke-dasharray:none;stroke-opacity:1"
         d="m 759.96289,33.654297 c -0.87389,0.0397 -1.74122,0.25411 -2.53711,0.658203 -0.57581,0 -1.18031,-0.182075 -1.72656,0 -0.38623,0.128747 -0.5167,0.649904 -0.86328,0.863281 -3.40615,2.096091 -7.31565,3.459331 -10.36524,6.046875 -1.67467,1.420925 -17.41077,16.38245 -22.45508,23.31836 -3.28769,4.520613 -8.75909,8.27795 -9.5,13.818359 -5.96999,44.645405 -6.90867,89.820335 -10.36328,134.730465 64.68435,-28.98105 85.72715,-112.24861 64.16797,-175.460934 -1.04751,-2.637606 -3.73574,-4.09371 -6.35742,-3.974609 z"
         id="path5429"
         transform="scale(0.26458333)" />
      <path
         inkscape:connector-curvature="0"
         style="fill:#2affd5;stroke:#1334ff;stroke-width:18.89763832;stroke-linecap:butt;stroke-linejoin:miter;stroke-miterlimit:4;stroke-dasharray:none;stroke-opacity:1"
         d="m 63.556641,707.64258 c -0.147606,-0.0337 -0.316077,0.0705 -0.509766,0.32226 l 1.296875,3.11133 v 0.002 c 1.360023,21.09264 -8.216653,134.24589 34.113281,157.52735 11.991819,6.5955 25.333049,10.363 37.999999,15.54492 11.72752,-15.5698 15.71036,-40.39611 12.20899,-59.73633 -6.94847,-21.38952 -18.5395,-41.11487 -29.97657,-60.42187 -14.85035,-21.37261 -32.145319,-41.77505 -54.638669,-55.41797 -0.12879,-0.55587 -0.289962,-0.88499 -0.49414,-0.93164 z"
         transform="scale(0.26458333)"
         id="path5431" />
      <path
         inkscape:connector-curvature="0"
         style="fill:#2affd5;stroke:#1334ff;stroke-width:18.89763832;stroke-linecap:butt;stroke-linejoin:miter;stroke-miterlimit:4;stroke-dasharray:none;stroke-opacity:1"
         d="m 694.37891,967.0625 -0.85352,0.58008 -0.85351,0.58008 c -0.24644,0.55147 -0.48376,1.10697 -0.71876,1.66211 -0.0542,-0.0778 -0.11012,-0.15446 -0.16406,-0.23243 l 0.0957,0.39258 c -8.88117,21.09088 -9.5789,44.75368 -5.85157,67.10938 3.31911,24.4923 19.77648,44.437 36.84766,61.1836 13.26603,0.3443 20.33516,-12.824 21.75781,-24.3457 3.56047,-12.8458 0.88131,-26.3893 -4.00195,-38.5098 -7.80253,-24.5472 -28.94259,-40.3247 -44.4043,-59.88474 z"
         transform="scale(0.26458333)"
         id="path5433" />
      <rect
         style="opacity:1;vector-effect:none;fill:#2affd5;fill-opacity:1;stroke:#1334ff;stroke-width:5;stroke-linecap:butt;stroke-linejoin:miter;stroke-miterlimit:4;stroke-dasharray:none;stroke-dashoffset:0;stroke-opacity:1"
         id="rect5435"
         width="106.61618"
         height="101.72553"
         x="69.121193"
         y="85.071808" />
      <rect
         style="opacity:1;vector-effect:none;fill:#2affd5;fill-opacity:1;stroke:#1334ff;stroke-width:5;stroke-linecap:butt;stroke-linejoin:miter;stroke-miterlimit:4;stroke-dasharray:none;stroke-dashoffset:0;stroke-opacity:1"
         id="rect5437"
         width="58.035717"
         height="54.123199"
         x="16.628212"
         y="232.44342" />
      <rect
         style="opacity:1;vector-effect:none;fill:#2affd5;fill-opacity:1;stroke:#1334ff;stroke-width:5;stroke-linecap:butt;stroke-linejoin:miter;stroke-miterlimit:4;stroke-dasharray:none;stroke-dashoffset:0;stroke-opacity:1"
         id="rect5439"
         width="151.61015"
         height="47.928371"
         x="33.256424"
         y="-24.47876"
         clip-path="url(#clipPath6201)" />
      <rect
         y="268.67813"
         x="33.256424"
         height="47.928371"
         width="151.61015"
         id="rect5441"
         style="opacity:1;vector-effect:none;fill:#2affd5;fill-opacity:1;stroke:#1334ff;stroke-width:5;stroke-linecap:butt;stroke-linejoin:miter;stroke-miterlimit:4;stroke-dasharray:none;stroke-dashoffset:0;stroke-opacity:1"
         clip-path="url(#clipPath6207)" />
      <rect
         style="opacity:1;vector-effect:none;fill:#2affd5;fill-opacity:1;stroke:#1334ff;stroke-width:5;stroke-linecap:butt;stroke-linejoin:miter;stroke-miterlimit:4;stroke-dasharray:none;stroke-dashoffset:0;stroke-opacity:1"
         id="rect5443"
         width="58.035717"
         height="54.123199"
         x="160.56114"
         y="71.048965"
         clip-path="url(#clipPath6636)" />
      <path
         id="path5445"
         d="m 168.85474,88.429416 c -21.43901,-3.832489 -45.56703,3.375435 -53.98476,19.716974 -4.14594,8.93383 -7.39783,19.56286 -1.50118,29.10081 3.28953,5.29675 9.4302,9.32481 16.75175,8.706 15.20312,0.97995 30.2357,-1.51922 44.1109,-5.58637 8.31153,-2.62011 12.00442,-9.84361 15.88606,-15.88335 1.31317,-5.16214 6.66444,-7.93399 11.3044,-10.91231 l 0.61942,-0.47902 0.0731,-1.0521 c -2.99021,-9.52202 -14.08293,-16.63049 -24.29015,-21.286739 -2.89935,-1.003683 -5.90692,-1.776407 -8.96964,-2.323906 z"
         style="fill:url(#linearGradient5459);fill-opacity:1;stroke:#c143ff;stroke-width:1.11149669;stroke-linecap:butt;stroke-linejoin:miter;stroke-miterlimit:4;stroke-dasharray:none;stroke-opacity:1"
         inkscape:connector-curvature="0" />
    </g>
  </g>
</svg>
