<?xml version="1.0" encoding="UTF-8" standalone="no"?>
<!-- Created with Inkscape (http://www.inkscape.org/) -->

<svg
   xmlns:dc="http://purl.org/dc/elements/1.1/"
   xmlns:cc="http://creativecommons.org/ns#"
   xmlns:rdf="http://www.w3.org/1999/02/22-rdf-syntax-ns#"
   xmlns:svg="http://www.w3.org/2000/svg"
   xmlns="http://www.w3.org/2000/svg"
   xmlns:sodipodi="http://sodipodi.sourceforge.net/DTD/sodipodi-0.dtd"
   xmlns:inkscape="http://www.inkscape.org/namespaces/inkscape"
   width="750"
   height="750"
   viewBox="0 0 198.43749 198.43751"
   version="1.1"
   id="svg8"
   sodipodi:docname="twinkle.svg"
   inkscape:version="0.92.1 r15371">
  <defs
     id="defs2" />
  <sodipodi:namedview
     id="base"
     pagecolor="#ffffff"
     bordercolor="#666666"
     borderopacity="1.0"
     inkscape:pageopacity="0.0"
     inkscape:pageshadow="2"
     inkscape:zoom="1.1831593"
     inkscape:cx="792.20522"
     inkscape:cy="165.67009"
     inkscape:document-units="mm"
     inkscape:current-layer="layer1"
     showgrid="false"
     inkscape:window-width="3840"
     inkscape:window-height="2004"
     inkscape:window-x="-16"
     inkscape:window-y="-16"
     inkscape:window-maximized="1"
     units="px" />
  <metadata
     id="metadata5">
    <rdf:RDF>
      <cc:Work
         rdf:about="">
        <dc:format>image/svg+xml</dc:format>
        <dc:type
           rdf:resource="http://purl.org/dc/dcmitype/StillImage" />
        <dc:title></dc:title>
      </cc:Work>
    </rdf:RDF>
  </metadata>
  <g
     inkscape:label="Layer 1"
     inkscape:groupmode="layer"
     id="layer1"
     transform="translate(0,-98.562487)">
    <rect
       style="opacity:1;vector-effect:none;fill:#6848a2;fill-opacity:1;stroke:none;stroke-width:5;stroke-linecap:butt;stroke-linejoin:miter;stroke-miterlimit:4;stroke-dasharray:none;stroke-dashoffset:0;stroke-opacity:1"
       id="rect5699"
       width="198.43748"
       height="198.43748"
       x="0"
       y="98.562515" />
    <path
       inkscape:connector-curvature="0"
       style="fill:#6848a2;fill-opacity:1;stroke:none;stroke-width:0.26458332px;stroke-linecap:butt;stroke-linejoin:miter;stroke-opacity:1"
       d="m -500,297 66.14582,-99.21875 v 33.07291 33.07292 l 66.14584,-99.21874 H -500 Z"
       id="path5619" />
    <path
       inkscape:connector-curvature="0"
       style="fill:#6848a2;fill-opacity:1;stroke:none;stroke-width:0.26458332px;stroke-linecap:butt;stroke-linejoin:miter;stroke-opacity:1"
       d="m -367.70834,164.70834 -66.14582,99.21875 V 230.85418 197.78126 L -500,297 h 132.29166 z"
       id="path5621" />
    <path
       inkscape:connector-curvature="0"
       style="fill:#6848a2;fill-opacity:1;stroke:none;stroke-width:0.26458332px;stroke-linecap:butt;stroke-linejoin:miter;stroke-opacity:1"
       d="m -367.70834,164.70834 -66.14582,99.21875 V 230.85418 197.78126 L -500,297 h 132.29166 z"
       id="path5623" />
    <path
       inkscape:connector-curvature="0"
       style="fill:#6848a2;fill-opacity:1;stroke:none;stroke-width:0.26458332px;stroke-linecap:butt;stroke-linejoin:miter;stroke-opacity:1"
       d="m -367.70834,164.70834 -66.14582,99.21875 V 230.85418 197.78126 L -500,297 h 132.29166 z"
       id="path5625" />
    <path
       style="opacity:1;vector-effect:none;fill:#4f377b;fill-opacity:1;stroke:none;stroke-width:58.95241165;stroke-linecap:butt;stroke-linejoin:miter;stroke-miterlimit:4;stroke-dasharray:none;stroke-dashoffset:0;stroke-opacity:1"
       d="M 750 0 L 562.5 281.25 L 562.5 187.5 L 562.5 93.75 L 375 375 L 187.5 656.25 L 187.5 562.5 L 187.5 468.75 L 0 750 L 375 750 L 562.5 468.75 L 562.5 562.5 L 562.5 656.25 L 750 375 L 750 0 z "
       transform="matrix(0.26458333,0,0,0.26458333,0,98.562487)"
       id="rect4725" />
    <path
       id="path4746"
       d="m 198.43749,197.78126 -49.60937,74.41407 V 247.39064 222.58595 L 99.218747,297 h 99.218743 z"
       style="fill:#6848a2;fill-opacity:1;stroke:none;stroke-width:0.19843748px;stroke-linecap:butt;stroke-linejoin:miter;stroke-opacity:1"
       inkscape:connector-curvature="0" />
    <path
       style="fill:#6848a2;fill-opacity:1;stroke:none;stroke-width:0.74999994px;stroke-linecap:butt;stroke-linejoin:miter;stroke-opacity:1"
       d="M 375 0 L 187.5 281.25 L 187.5 187.5 L 187.5 93.75 L 0 375 L 0 750 L 187.5 468.75 L 187.5 562.5 L 187.5 656.25 L 375 375 L 562.5 93.75 L 562.5 187.5 L 562.5 281.25 L 750 0 L 375 0 z "
       transform="matrix(0.26458333,0,0,0.26458333,0,98.562487)"
       id="path5627" />
    <path
       style="fill:#f6f3a0;fill-opacity:1;stroke:none;stroke-width:0.02417709px;stroke-linecap:butt;stroke-linejoin:miter;stroke-opacity:1"
       d="m 78.023142,220.79079 c -1.729043,9.52551 -14.220384,10.27629 -14.220384,10.27629 0,0 12.491341,0.75078 14.220384,10.27629 1.729042,-9.52551 14.22038,-10.27629 14.22038,-10.27629 0,0 -12.491338,-0.75078 -14.22038,-10.27629 z"
       id="path5629"
       inkscape:connector-curvature="0" />
    <path
       inkscape:connector-curvature="0"
       id="path5638"
       d="m 91.929632,243.9677 c -0.8562,4.71691 -7.041741,5.08869 -7.041741,5.08869 0,0 6.185541,0.37177 7.041741,5.08867 0.8562,-4.7169 7.041743,-5.08867 7.041743,-5.08867 0,0 -6.185543,-0.37178 -7.041743,-5.08869 z"
       style="fill:#f6f3a0;fill-opacity:1;stroke:none;stroke-width:0.01197216px;stroke-linecap:butt;stroke-linejoin:miter;stroke-opacity:1" />
    <path
       style="fill:#f6f3a0;fill-opacity:1;stroke:none;stroke-width:0.00970836px;stroke-linecap:butt;stroke-linejoin:miter;stroke-opacity:1"
       d="m 167.32456,277.77086 c -0.69429,3.82498 -5.71021,4.12645 -5.71021,4.12645 0,0 5.01592,0.30149 5.71021,4.12647 0.69431,-3.82498 5.71023,-4.12647 5.71023,-4.12647 0,0 -5.01592,-0.30147 -5.71023,-4.12645 z"
       id="path5640"
       inkscape:connector-curvature="0" />
    <path
       id="path5663"
       d="m 0,197.78126 49.609362,-74.41407 v 24.80469 24.80469 L 99.21874,98.562515 H 0 Z"
       style="fill:#4f377b;fill-opacity:1;stroke:none;stroke-width:0.19843748px;stroke-linecap:butt;stroke-linejoin:miter;stroke-opacity:1"
       inkscape:connector-curvature="0" />
    <path
       inkscape:connector-curvature="0"
       id="path5665"
       d="m 78.023142,121.57203 c -1.729043,9.52553 -14.220384,10.27631 -14.220384,10.27631 0,0 12.491341,0.75078 14.220384,10.27629 1.729042,-9.52551 14.22038,-10.27629 14.22038,-10.27629 0,0 -12.491338,-0.75078 -14.22038,-10.27631 z"
       style="fill:#f6f3a0;fill-opacity:1;stroke:none;stroke-width:0.02417709px;stroke-linecap:butt;stroke-linejoin:miter;stroke-opacity:1" />
    <path
       style="fill:#f6f3a0;fill-opacity:1;stroke:none;stroke-width:0.01197216px;stroke-linecap:butt;stroke-linejoin:miter;stroke-opacity:1"
       d="m 91.929632,144.74895 c -0.8562,4.7169 -7.041741,5.08868 -7.041741,5.08868 0,0 6.185541,0.37179 7.041741,5.08869 0.8562,-4.7169 7.041743,-5.08869 7.041743,-5.08869 0,0 -6.185543,-0.37178 -7.041743,-5.08868 z"
       id="path5667"
       inkscape:connector-curvature="0" />
    <path
       inkscape:connector-curvature="0"
       id="path5669"
       d="m 167.32456,178.5521 c -0.69429,3.82498 -5.71021,4.12647 -5.71021,4.12647 0,0 5.01592,0.30147 5.71021,4.12645 0.69431,-3.82498 5.71023,-4.12645 5.71023,-4.12645 0,0 -5.01592,-0.30149 -5.71023,-4.12647 z"
       style="fill:#f6f3a0;fill-opacity:1;stroke:none;stroke-width:0.00970836px;stroke-linecap:butt;stroke-linejoin:miter;stroke-opacity:1" />
  </g>
</svg>
