<?xml version="1.0" encoding="UTF-8" standalone="no"?>
<!-- Created with Inkscape (http://www.inkscape.org/) -->

<svg
   xmlns:dc="http://purl.org/dc/elements/1.1/"
   xmlns:cc="http://creativecommons.org/ns#"
   xmlns:rdf="http://www.w3.org/1999/02/22-rdf-syntax-ns#"
   xmlns:svg="http://www.w3.org/2000/svg"
   xmlns="http://www.w3.org/2000/svg"
   xmlns:sodipodi="http://sodipodi.sourceforge.net/DTD/sodipodi-0.dtd"
   xmlns:inkscape="http://www.inkscape.org/namespaces/inkscape"
   width="540"
   height="335"
   viewBox="0 0 142.875 88.635419"
   version="1.1"
   id="svg4819"
   inkscape:version="0.92.1 r15371"
   sodipodi:docname="bike.svg">
  <defs
     id="defs4813" />
  <sodipodi:namedview
     id="base"
     pagecolor="#ffffff"
     bordercolor="#666666"
     borderopacity="1.0"
     inkscape:pageopacity="0.0"
     inkscape:pageshadow="2"
     inkscape:zoom="1.0543273"
     inkscape:cx="226.09543"
     inkscape:cy="396.21873"
     inkscape:document-units="mm"
     inkscape:current-layer="layer1"
     showgrid="false"
     inkscape:window-width="3840"
     inkscape:window-height="2004"
     inkscape:window-x="-16"
     inkscape:window-y="-16"
     inkscape:window-maximized="1"
     units="px" />
  <metadata
     id="metadata4816">
    <rdf:RDF>
      <cc:Work
         rdf:about="">
        <dc:format>image/svg+xml</dc:format>
        <dc:type
           rdf:resource="http://purl.org/dc/dcmitype/StillImage" />
        <dc:title />
      </cc:Work>
    </rdf:RDF>
  </metadata>
  <g
     inkscape:label="Layer 1"
     inkscape:groupmode="layer"
     id="layer1"
     transform="translate(0,-208.36457)">
    <g
       id="g6056"
       transform="matrix(-0.99144564,0,0,0.99760295,171.92332,21.215284)">
      <path
         inkscape:connector-curvature="0"
         id="path5993"
         d="m 71.65457,216.86087 h 84.35068"
         style="fill:none;stroke:#ffa900;stroke-width:15.875;stroke-linecap:round;stroke-linejoin:miter;stroke-miterlimit:4;stroke-dasharray:none;stroke-opacity:1" />
      <path
         style="fill:none;stroke:#fdf880;stroke-width:15.875;stroke-linecap:round;stroke-linejoin:miter;stroke-miterlimit:4;stroke-dasharray:none;stroke-opacity:1"
         d="m 50.48789,228.50261 h 84.35056"
         id="path5991"
         inkscape:connector-curvature="0" />
      <path
         inkscape:connector-curvature="0"
         id="path5980"
         d="m 50.48789,256.01945 h 84.35056"
         style="fill:none;stroke:#fdf880;stroke-width:15.875;stroke-linecap:round;stroke-linejoin:miter;stroke-miterlimit:4;stroke-dasharray:none;stroke-opacity:1" />
      <path
         style="fill:none;stroke:#ffa900;stroke-width:15.875;stroke-linecap:round;stroke-linejoin:miter;stroke-miterlimit:4;stroke-dasharray:none;stroke-opacity:1"
         d="m 71.65457,241.73186 h 84.35068"
         id="path5989"
         inkscape:connector-curvature="0" />
      <g
         id="g5919"
         transform="translate(-86.30969,0.33285166)">
        <path
           inkscape:connector-curvature="0"
           id="path5879"
           d="m 144.53517,219.93138 v 54.53635"
           style="fill:none;stroke:#cccccc;stroke-width:0.5291667;stroke-linecap:butt;stroke-linejoin:miter;stroke-miterlimit:4;stroke-dasharray:none;stroke-opacity:1" />
        <path
           style="fill:none;stroke:#cccccc;stroke-width:0.5291667;stroke-linecap:butt;stroke-linejoin:miter;stroke-miterlimit:4;stroke-dasharray:none;stroke-opacity:1"
           d="m 139.8001,220.34564 9.47014,53.70783"
           id="path5881"
           inkscape:connector-curvature="0" />
        <path
           inkscape:connector-curvature="0"
           id="path5883"
           d="m 135.2089,221.57585 18.65254,51.24741"
           style="fill:none;stroke:#cccccc;stroke-width:0.5291667;stroke-linecap:butt;stroke-linejoin:miter;stroke-miterlimit:4;stroke-dasharray:none;stroke-opacity:1" />
        <path
           style="fill:none;stroke:#cccccc;stroke-width:0.5291667;stroke-linecap:butt;stroke-linejoin:miter;stroke-miterlimit:4;stroke-dasharray:none;stroke-opacity:1"
           d="m 130.90108,223.58462 27.26818,47.22987"
           id="path5885"
           inkscape:connector-curvature="0" />
        <path
           inkscape:connector-curvature="0"
           id="path5887"
           d="m 127.00752,226.31092 35.0553,41.77727"
           style="fill:none;stroke:#cccccc;stroke-width:0.5291667;stroke-linecap:butt;stroke-linejoin:miter;stroke-miterlimit:4;stroke-dasharray:none;stroke-opacity:1" />
        <path
           style="fill:none;stroke:#cccccc;stroke-width:0.5291667;stroke-linecap:butt;stroke-linejoin:miter;stroke-miterlimit:4;stroke-dasharray:none;stroke-opacity:1"
           d="m 123.64653,229.67191 41.77728,35.05529"
           id="path5889"
           inkscape:connector-curvature="0" />
        <path
           inkscape:connector-curvature="0"
           id="path5891"
           d="m 120.92023,233.56547 47.22988,27.26817"
           style="fill:none;stroke:#cccccc;stroke-width:0.5291667;stroke-linecap:butt;stroke-linejoin:miter;stroke-miterlimit:4;stroke-dasharray:none;stroke-opacity:1" />
        <path
           style="fill:none;stroke:#cccccc;stroke-width:0.5291667;stroke-linecap:butt;stroke-linejoin:miter;stroke-miterlimit:4;stroke-dasharray:none;stroke-opacity:1"
           d="m 118.91146,237.87329 51.24742,18.65253"
           id="path5893"
           inkscape:connector-curvature="0" />
        <path
           inkscape:connector-curvature="0"
           id="path5895"
           d="m 117.68125,242.46449 53.70784,9.47013"
           style="fill:none;stroke:#cccccc;stroke-width:0.5291667;stroke-linecap:butt;stroke-linejoin:miter;stroke-miterlimit:4;stroke-dasharray:none;stroke-opacity:1" />
        <path
           style="fill:none;stroke:#cccccc;stroke-width:0.5291667;stroke-linecap:butt;stroke-linejoin:miter;stroke-miterlimit:4;stroke-dasharray:none;stroke-opacity:1"
           d="m 117.26699,247.19956 54.53636,-1e-5"
           id="path5897"
           inkscape:connector-curvature="0" />
        <path
           inkscape:connector-curvature="0"
           id="path5899"
           d="m 117.68126,251.93463 53.70782,-9.47015"
           style="fill:none;stroke:#cccccc;stroke-width:0.5291667;stroke-linecap:butt;stroke-linejoin:miter;stroke-miterlimit:4;stroke-dasharray:none;stroke-opacity:1" />
        <path
           style="fill:none;stroke:#cccccc;stroke-width:0.5291667;stroke-linecap:butt;stroke-linejoin:miter;stroke-miterlimit:4;stroke-dasharray:none;stroke-opacity:1"
           d="m 118.91147,256.52583 51.2474,-18.65255"
           id="path5901"
           inkscape:connector-curvature="0" />
        <path
           inkscape:connector-curvature="0"
           id="path5903"
           d="M 120.92024,260.83365 168.1501,233.56546"
           style="fill:none;stroke:#cccccc;stroke-width:0.5291667;stroke-linecap:butt;stroke-linejoin:miter;stroke-miterlimit:4;stroke-dasharray:none;stroke-opacity:1" />
        <path
           style="fill:none;stroke:#cccccc;stroke-width:0.5291667;stroke-linecap:butt;stroke-linejoin:miter;stroke-miterlimit:4;stroke-dasharray:none;stroke-opacity:1"
           d="M 123.64654,264.72721 165.4238,229.6719"
           id="path5905"
           inkscape:connector-curvature="0" />
        <path
           inkscape:connector-curvature="0"
           id="path5907"
           d="m 127.00753,268.0882 35.05528,-41.77729"
           style="fill:none;stroke:#cccccc;stroke-width:0.5291667;stroke-linecap:butt;stroke-linejoin:miter;stroke-miterlimit:4;stroke-dasharray:none;stroke-opacity:1" />
        <path
           style="fill:none;stroke:#cccccc;stroke-width:0.5291667;stroke-linecap:butt;stroke-linejoin:miter;stroke-miterlimit:4;stroke-dasharray:none;stroke-opacity:1"
           d="m 130.90109,270.8145 27.26816,-47.22989"
           id="path5909"
           inkscape:connector-curvature="0" />
        <path
           inkscape:connector-curvature="0"
           id="path5911"
           d="m 135.20891,272.82327 18.65252,-51.24743"
           style="fill:none;stroke:#cccccc;stroke-width:0.5291667;stroke-linecap:butt;stroke-linejoin:miter;stroke-miterlimit:4;stroke-dasharray:none;stroke-opacity:1" />
        <path
           style="fill:none;stroke:#cccccc;stroke-width:0.5291667;stroke-linecap:butt;stroke-linejoin:miter;stroke-miterlimit:4;stroke-dasharray:none;stroke-opacity:1"
           d="m 139.80011,274.05348 9.47012,-53.70785"
           id="path5913"
           inkscape:connector-curvature="0" />
        <ellipse
           ry="27.598053"
           rx="27.598057"
           cy="247.19955"
           cx="144.53517"
           id="ellipse5915"
           style="opacity:1;vector-effect:none;fill:none;fill-opacity:1;stroke:#666666;stroke-width:2.64583325;stroke-linecap:round;stroke-linejoin:round;stroke-miterlimit:4;stroke-dasharray:none;stroke-dashoffset:0;stroke-opacity:1" />
        <ellipse
           style="opacity:1;vector-effect:none;fill:none;fill-opacity:1;stroke:#e6e6e6;stroke-width:2.46429014;stroke-linecap:round;stroke-linejoin:round;stroke-miterlimit:4;stroke-dasharray:none;stroke-dashoffset:0;stroke-opacity:1"
           id="ellipse5917"
           cx="144.53517"
           cy="247.19955"
           rx="25.704422"
           ry="25.704418" />
      </g>
      <path
         inkscape:connector-curvature="0"
         id="path5995"
         d="m 50.48789,205.21913 h 84.35056"
         style="fill:none;stroke:#fdf880;stroke-width:15.875;stroke-linecap:round;stroke-linejoin:miter;stroke-miterlimit:4;stroke-dasharray:none;stroke-opacity:1" />
      <path
         sodipodi:nodetypes="ccccc"
         inkscape:connector-curvature="0"
         id="path5697"
         d="m 57.579558,247.88261 22.259189,-37.25195 47.737683,-1.28772 -32.560963,42.95472 z"
         style="fill:none;stroke:#6848a2;stroke-width:2.64583325;stroke-linecap:butt;stroke-linejoin:round;stroke-miterlimit:4;stroke-dasharray:none;stroke-opacity:1" />
      <path
         sodipodi:nodetypes="cc"
         inkscape:connector-curvature="0"
         id="path5701"
         d="M 94.519699,252.07971 73.102731,193.28041"
         style="fill:none;stroke:#6848a2;stroke-width:2.64583325;stroke-linecap:round;stroke-linejoin:miter;stroke-miterlimit:4;stroke-dasharray:none;stroke-opacity:1" />
      <path
         sodipodi:nodetypes="acsaa"
         inkscape:connector-curvature="0"
         id="path5819"
         d="m 64.673425,189.01584 c -0.452438,4.58219 7.425924,7.17284 13.546733,2.70115 2.086342,-1.54139 7.87425,-0.14316 7.889849,-0.82036 0.09606,-4.1703 -8.21258,-1.56619 -12.372128,-1.88056 -3.012892,-0.22771 -8.767561,-3.00709 -9.064454,-2.3e-4 z"
         style="fill:#4f377b;fill-opacity:1;stroke:none;stroke-width:0.26458332px;stroke-linecap:butt;stroke-linejoin:miter;stroke-opacity:1" />
      <g
         transform="translate(-0.05547528,0.33285166)"
         id="g5877">
        <path
           style="fill:none;stroke:#cccccc;stroke-width:0.5291667;stroke-linecap:butt;stroke-linejoin:miter;stroke-miterlimit:4;stroke-dasharray:none;stroke-opacity:1"
           d="m 144.53517,219.93138 v 54.53635"
           id="path5757"
           inkscape:connector-curvature="0" />
        <path
           inkscape:connector-curvature="0"
           id="path5823"
           d="m 139.8001,220.34564 9.47014,53.70783"
           style="fill:none;stroke:#cccccc;stroke-width:0.5291667;stroke-linecap:butt;stroke-linejoin:miter;stroke-miterlimit:4;stroke-dasharray:none;stroke-opacity:1" />
        <path
           style="fill:none;stroke:#cccccc;stroke-width:0.5291667;stroke-linecap:butt;stroke-linejoin:miter;stroke-miterlimit:4;stroke-dasharray:none;stroke-opacity:1"
           d="m 135.2089,221.57585 18.65254,51.24741"
           id="path5825"
           inkscape:connector-curvature="0" />
        <path
           inkscape:connector-curvature="0"
           id="path5827"
           d="m 130.90108,223.58462 27.26818,47.22987"
           style="fill:none;stroke:#cccccc;stroke-width:0.5291667;stroke-linecap:butt;stroke-linejoin:miter;stroke-miterlimit:4;stroke-dasharray:none;stroke-opacity:1" />
        <path
           style="fill:none;stroke:#cccccc;stroke-width:0.5291667;stroke-linecap:butt;stroke-linejoin:miter;stroke-miterlimit:4;stroke-dasharray:none;stroke-opacity:1"
           d="m 127.00752,226.31092 35.0553,41.77727"
           id="path5829"
           inkscape:connector-curvature="0" />
        <path
           inkscape:connector-curvature="0"
           id="path5831"
           d="m 123.64653,229.67191 41.77728,35.05529"
           style="fill:none;stroke:#cccccc;stroke-width:0.5291667;stroke-linecap:butt;stroke-linejoin:miter;stroke-miterlimit:4;stroke-dasharray:none;stroke-opacity:1" />
        <path
           style="fill:none;stroke:#cccccc;stroke-width:0.5291667;stroke-linecap:butt;stroke-linejoin:miter;stroke-miterlimit:4;stroke-dasharray:none;stroke-opacity:1"
           d="m 120.92023,233.56547 47.22988,27.26817"
           id="path5833"
           inkscape:connector-curvature="0" />
        <path
           inkscape:connector-curvature="0"
           id="path5835"
           d="m 118.91146,237.87329 51.24742,18.65253"
           style="fill:none;stroke:#cccccc;stroke-width:0.5291667;stroke-linecap:butt;stroke-linejoin:miter;stroke-miterlimit:4;stroke-dasharray:none;stroke-opacity:1" />
        <path
           style="fill:none;stroke:#cccccc;stroke-width:0.5291667;stroke-linecap:butt;stroke-linejoin:miter;stroke-miterlimit:4;stroke-dasharray:none;stroke-opacity:1"
           d="m 117.68125,242.46449 53.70784,9.47013"
           id="path5837"
           inkscape:connector-curvature="0" />
        <path
           inkscape:connector-curvature="0"
           id="path5839"
           d="m 117.26699,247.19956 54.53636,-1e-5"
           style="fill:none;stroke:#cccccc;stroke-width:0.5291667;stroke-linecap:butt;stroke-linejoin:miter;stroke-miterlimit:4;stroke-dasharray:none;stroke-opacity:1" />
        <path
           style="fill:none;stroke:#cccccc;stroke-width:0.5291667;stroke-linecap:butt;stroke-linejoin:miter;stroke-miterlimit:4;stroke-dasharray:none;stroke-opacity:1"
           d="m 117.68126,251.93463 53.70782,-9.47015"
           id="path5841"
           inkscape:connector-curvature="0" />
        <path
           inkscape:connector-curvature="0"
           id="path5843"
           d="m 118.91147,256.52583 51.2474,-18.65255"
           style="fill:none;stroke:#cccccc;stroke-width:0.5291667;stroke-linecap:butt;stroke-linejoin:miter;stroke-miterlimit:4;stroke-dasharray:none;stroke-opacity:1" />
        <path
           style="fill:none;stroke:#cccccc;stroke-width:0.5291667;stroke-linecap:butt;stroke-linejoin:miter;stroke-miterlimit:4;stroke-dasharray:none;stroke-opacity:1"
           d="M 120.92024,260.83365 168.1501,233.56546"
           id="path5845"
           inkscape:connector-curvature="0" />
        <path
           inkscape:connector-curvature="0"
           id="path5847"
           d="M 123.64654,264.72721 165.4238,229.6719"
           style="fill:none;stroke:#cccccc;stroke-width:0.5291667;stroke-linecap:butt;stroke-linejoin:miter;stroke-miterlimit:4;stroke-dasharray:none;stroke-opacity:1" />
        <path
           style="fill:none;stroke:#cccccc;stroke-width:0.5291667;stroke-linecap:butt;stroke-linejoin:miter;stroke-miterlimit:4;stroke-dasharray:none;stroke-opacity:1"
           d="m 127.00753,268.0882 35.05528,-41.77729"
           id="path5849"
           inkscape:connector-curvature="0" />
        <path
           inkscape:connector-curvature="0"
           id="path5851"
           d="m 130.90109,270.8145 27.26816,-47.22989"
           style="fill:none;stroke:#cccccc;stroke-width:0.5291667;stroke-linecap:butt;stroke-linejoin:miter;stroke-miterlimit:4;stroke-dasharray:none;stroke-opacity:1" />
        <path
           style="fill:none;stroke:#cccccc;stroke-width:0.5291667;stroke-linecap:butt;stroke-linejoin:miter;stroke-miterlimit:4;stroke-dasharray:none;stroke-opacity:1"
           d="m 135.20891,272.82327 18.65252,-51.24743"
           id="path5853"
           inkscape:connector-curvature="0" />
        <path
           inkscape:connector-curvature="0"
           id="path5855"
           d="m 139.80011,274.05348 9.47012,-53.70785"
           style="fill:none;stroke:#cccccc;stroke-width:0.5291667;stroke-linecap:butt;stroke-linejoin:miter;stroke-miterlimit:4;stroke-dasharray:none;stroke-opacity:1" />
        <ellipse
           style="opacity:1;vector-effect:none;fill:none;fill-opacity:1;stroke:#666666;stroke-width:2.64583325;stroke-linecap:round;stroke-linejoin:round;stroke-miterlimit:4;stroke-dasharray:none;stroke-dashoffset:0;stroke-opacity:1"
           id="path5712"
           cx="144.53517"
           cy="247.19955"
           rx="27.598057"
           ry="27.598053" />
        <ellipse
           ry="25.704418"
           rx="25.704422"
           cy="247.19955"
           cx="144.53517"
           id="ellipse5714"
           style="opacity:1;vector-effect:none;fill:none;fill-opacity:1;stroke:#e6e6e6;stroke-width:2.46429014;stroke-linecap:round;stroke-linejoin:round;stroke-miterlimit:4;stroke-dasharray:none;stroke-dashoffset:0;stroke-opacity:1" />
      </g>
      <path
         inkscape:connector-curvature="0"
         id="path5695"
         d="m 133.7391,200.14493 h -7.91029 l 18.39602,47.6457"
         style="fill:none;stroke:#6848a2;stroke-width:2.64583325;stroke-linecap:round;stroke-linejoin:round;stroke-miterlimit:4;stroke-dasharray:none;stroke-opacity:1" />
      <path
         sodipodi:nodetypes="cc"
         inkscape:connector-curvature="0"
         id="path5821"
         d="m 133.7391,200.14493 c 0,0 9.89157,3.9065 15.67306,-1.72104"
         style="fill:none;stroke:#4f377b;stroke-width:2.64583325;stroke-linecap:round;stroke-linejoin:miter;stroke-miterlimit:4;stroke-dasharray:none;stroke-opacity:1" />
      <g
         inkscape:transform-center-y="4.6617561"
         inkscape:transform-center-x="-38.231071"
         transform="matrix(1.0119819,-0.02920956,0.02879506,1.0265495,-8.1330692,-5.0873574)"
         id="g5968">
        <path
           inkscape:connector-curvature="0"
           style="opacity:1;vector-effect:none;fill:#e6e6e6;fill-opacity:1;stroke:none;stroke-width:3.10424161;stroke-linecap:butt;stroke-linejoin:miter;stroke-miterlimit:4;stroke-dasharray:none;stroke-dashoffset:0;stroke-opacity:1"
           d="m 94.493297,245.78043 v 6.29928 a 1.751511,1.751511 0 0 1 1.751511,1.75151 1.751511,1.751511 0 0 1 -1.751511,1.75151 v 5.65898 a 7.4042709,7.4042709 0 0 0 0.354396,-0.0128 c 0.08357,0.44997 0.187295,0.72428 0.3163,0.71527 0.130207,-0.009 0.18812,-0.29893 0.196752,-0.76289 a 7.4042709,7.4042709 0 0 0 0.511027,-0.0746 c 0.145594,0.43493 0.286509,0.69277 0.413157,0.66584 0.127217,-0.0271 0.144482,-0.32065 0.08916,-0.7785 a 7.4042709,7.4042709 0 0 0 0.492993,-0.15298 c 0.205563,0.41295 0.381863,0.64987 0.503934,0.60545 0.122465,-0.0446 0.09842,-0.33877 -0.02067,-0.78599 a 7.4042709,7.4042709 0 0 0 0.472121,-0.21134 c 0.258809,0.37601 0.464691,0.58399 0.578705,0.52338 0.115223,-0.0613 0.05027,-0.34964 -0.130492,-0.77687 a 7.4042709,7.4042709 0 0 0 0.434028,-0.27861 c 0.311164,0.33992 0.545598,0.51886 0.650636,0.44254 0.104985,-0.0763 0.0016,-0.35053 -0.233831,-0.74486 a 7.4042709,7.4042709 0 0 0 0.388841,-0.34143 c 0.3547,0.29252 0.611266,0.43677 0.704536,0.3467 0.0939,-0.0907 -0.0481,-0.34995 -0.339604,-0.71082 a 7.4042709,7.4042709 0 0 0 0.344264,-0.38499 c 0.39064,0.23923 0.66399,0.34571 0.74364,0.24376 0.0801,-0.10249 -0.0954,-0.3385 -0.432,-0.65368 a 7.4042709,7.4042709 0 0 0 0.28003,-0.43382 c 0.42248,0.18396 0.70954,0.25225 0.77444,0.13981 0.0651,-0.11273 -0.14187,-0.32224 -0.51973,-0.58782 a 7.4042709,7.4042709 0 0 0 0.22532,-0.46605 c 0.43954,0.12148 0.73056,0.14803 0.7789,0.0284 0.0488,-0.12081 -0.18582,-0.29954 -0.59775,-0.51022 a 7.4042709,7.4042709 0 0 0 0.1542,-0.49299 c 0.45534,0.06 0.74937,0.0463 0.78072,-0.0794 0.0313,-0.12557 -0.22307,-0.26907 -0.65489,-0.41923 a 7.4042709,7.4042709 0 0 0 0.0774,-0.51265 c 0.45834,-0.004 0.74693,-0.0583 0.76046,-0.18703 0.0136,-0.12947 -0.26071,-0.23688 -0.71406,-0.32582 a 7.4042709,7.4042709 0 0 0 0.0215,-0.43018 7.4042709,7.4042709 0 0 0 -0.003,-0.0875 c 0.44972,-0.0678 0.72585,-0.16139 0.72135,-0.29017 -0.005,-0.12946 -0.2888,-0.19721 -0.74607,-0.22248 a 7.4042709,7.4042709 0 0 0 -0.0626,-0.51528 c 0.43739,-0.12995 0.69859,-0.26151 0.67617,-0.38864 -0.0226,-0.12806 -0.31535,-0.15538 -0.77465,-0.11611 a 7.4042709,7.4042709 0 0 0 -0.12806,-0.50211 c 0.41451,-0.18937 0.65464,-0.35591 0.61477,-0.4786 -0.04,-0.12302 -0.33113,-0.10999 -0.77647,-0.009 a 7.4042709,7.4042709 0 0 0 -0.20506,-0.47678 c 0.38536,-0.24581 0.60051,-0.44432 0.54386,-0.56047 -0.0569,-0.11657 -0.34457,-0.0626 -0.77343,0.10071 a 7.4042709,7.4042709 0 0 0 -0.25896,-0.45166 c 0.34219,-0.29366 0.52498,-0.51779 0.45328,-0.62409 -0.0725,-0.10745 -0.34985,-0.0143 -0.75134,0.20688 a 7.4042709,7.4042709 0 0 0 -0.32461,-0.40464 c 0.3016,-0.34156 0.45326,-0.59125 0.36695,-0.68711 -0.0863,-0.0959 -0.34599,0.0339 -0.710002,0.30596 a 7.4042709,7.4042709 0 0 0 -0.381345,-0.3552 c 0.249636,-0.37849 0.364384,-0.64556 0.265847,-0.72825 -0.09922,-0.0832 -0.339916,0.0826 -0.664618,0.40546 a 7.4042709,7.4042709 0 0 0 -0.422144,-0.30348 c 0.194036,-0.40877 0.270046,-0.68873 0.161089,-0.75681 -0.109317,-0.0683 -0.323068,0.12763 -0.597751,0.48914 a 7.4042709,7.4042709 0 0 0 -0.46503,-0.23464 c 0.13593,-0.43328 0.172727,-0.72208 0.05511,-0.77444 -0.118015,-0.0525 -0.30307,0.17197 -0.525412,0.56979 a 7.4042709,7.4042709 0 0 0 -0.490156,-0.17913 c 0.07266,-0.44249 0.06816,-0.73029 -0.05471,-0.76552 -0.124183,-0.0356 -0.276092,0.21252 -0.440918,0.63746 a 7.4042709,7.4042709 0 0 0 -0.510621,-0.10151 c 0.01105,-0.45286 -0.03338,-0.74014 -0.160683,-0.75803 -0.127278,-0.0179 -0.242437,0.24684 -0.346088,0.6865 a 7.4042709,7.4042709 0 0 0 -0.521766,-0.0261 c -0.03757,-0.32328 -0.09203,-0.55552 -0.16737,-0.66097 z m 2.192429,3.0153 a 1.0946945,1.0946945 0 0 1 1.094593,1.09459 1.0946945,1.0946945 0 0 1 -1.094593,1.0948 1.0946945,1.0946945 0 0 1 -1.094796,-1.0948 1.0946945,1.0946945 0 0 1 1.094796,-1.09459 z m 2.36142,3.95751 a 1.0946945,1.0946945 0 0 1 1.094794,1.0948 1.0946945,1.0946945 0 0 1 -1.094794,1.09459 1.0946945,1.0946945 0 0 1 -1.094593,-1.09459 1.0946945,1.0946945 0 0 1 1.094593,-1.0948 z m -2.36142,3.92429 a 1.0946945,1.0946945 0 0 1 1.094593,1.09459 1.0946945,1.0946945 0 0 1 -1.094593,1.0948 1.0946945,1.0946945 0 0 1 -1.094796,-1.0948 1.0946945,1.0946945 0 0 1 1.094796,-1.09459 z"
           id="path5923" />
        <path
           inkscape:connector-curvature="0"
           style="opacity:1;vector-effect:none;fill:#e6e6e6;fill-opacity:1;stroke:none;stroke-width:3.10424161;stroke-linecap:butt;stroke-linejoin:miter;stroke-miterlimit:4;stroke-dasharray:none;stroke-dashoffset:0;stroke-opacity:1"
           d="m 94.519497,245.78043 c -0.07534,0.10545 -0.129593,0.33769 -0.167168,0.66097 a 7.4042709,7.4042709 0 0 0 -0.521766,0.0261 c -0.103651,-0.43966 -0.21881,-0.70438 -0.346088,-0.6865 -0.12731,0.0179 -0.171737,0.30517 -0.160683,0.75803 a 7.4042709,7.4042709 0 0 0 -0.510621,0.10151 c -0.164826,-0.42494 -0.316736,-0.67307 -0.440918,-0.63746 -0.122865,0.0352 -0.127366,0.32303 -0.05471,0.76552 a 7.4042709,7.4042709 0 0 0 -0.490156,0.17913 c -0.222342,-0.39782 -0.407397,-0.62234 -0.525413,-0.56979 -0.117612,0.0524 -0.08082,0.34116 0.05511,0.77444 a 7.4042709,7.4042709 0 0 0 -0.465029,0.23464 c -0.274682,-0.36151 -0.488434,-0.55745 -0.597752,-0.48914 -0.108959,0.0681 -0.03295,0.34804 0.16109,0.75681 a 7.4042709,7.4042709 0 0 0 -0.422073,0.30374 c -0.324703,-0.32284 -0.565396,-0.48871 -0.664618,-0.40546 -0.09854,0.0827 0.01621,0.34975 0.265847,0.72825 a 7.4042709,7.4042709 0 0 0 -0.381345,0.3552 c -0.364011,-0.2721 -0.623703,-0.40181 -0.710006,-0.30596 -0.08631,0.0959 0.06535,0.34555 0.366958,0.6871 a 7.4042709,7.4042709 0 0 0 -0.324609,0.40465 c -0.401492,-0.22113 -0.678869,-0.31433 -0.751343,-0.20688 -0.0717,0.1063 0.11108,0.33043 0.453277,0.62409 a 7.4042709,7.4042709 0 0 0 -0.258957,0.45166 c -0.428863,-0.16335 -0.716574,-0.21728 -0.773429,-0.10071 -0.05665,0.11615 0.158491,0.31466 0.543852,0.56047 a 7.4042709,7.4042709 0 0 0 -0.205059,0.47678 c -0.445332,-0.10127 -0.736501,-0.1143 -0.776469,0.009 -0.03987,0.1227 0.200259,0.28924 0.614772,0.47861 a 7.4042709,7.4042709 0 0 0 -0.12806,0.50211 c -0.459295,-0.0393 -0.752071,-0.012 -0.774645,0.11611 -0.02242,0.12713 0.238779,0.25869 0.676168,0.38864 a 7.4042709,7.4042709 0 0 0 -0.06261,0.51528 c -0.457275,0.0253 -0.741541,0.093 -0.746074,0.22248 -0.0045,0.12878 0.271635,0.22241 0.721353,0.29017 a 7.4042709,7.4042709 0 0 0 -0.003,0.0875 7.4042709,7.4042709 0 0 0 0.02148,0.43018 c -0.453344,0.0889 -0.727662,0.19635 -0.71406,0.32582 0.01353,0.12873 0.302117,0.18296 0.760461,0.18703 a 7.4042709,7.4042709 0 0 0 0.0774,0.51265 c -0.431819,0.15016 -0.686206,0.29366 -0.654892,0.41923 0.03135,0.12573 0.325374,0.13941 0.780724,0.0794 a 7.4042709,7.4042709 0 0 0 0.154199,0.49299 c -0.411936,0.21068 -0.646566,0.38941 -0.597751,0.51022 0.04834,0.11966 0.339359,0.0931 0.7789,-0.0284 a 7.4042709,7.4042709 0 0 0 0.225321,0.46605 c -0.377866,0.26558 -0.584825,0.47509 -0.519739,0.58782 0.06491,0.11244 0.351961,0.0442 0.774442,-0.13982 a 7.4042709,7.4042709 0 0 0 0.280031,0.43383 c -0.336647,0.31518 -0.512272,0.55119 -0.432204,0.65368 0.07965,0.10195 0.35321,-0.005 0.743846,-0.24377 a 7.4042709,7.4042709 0 0 0 0.344264,0.385 c -0.291534,0.36087 -0.433481,0.62016 -0.339604,0.71081 0.09327,0.0901 0.349835,-0.0542 0.704535,-0.34669 a 7.4042709,7.4042709 0 0 0 0.388842,0.34143 c -0.235467,0.39433 -0.338813,0.66859 -0.233832,0.74485 0.105038,0.0763 0.339473,-0.10261 0.650637,-0.44253 a 7.4042709,7.4042709 0 0 0 0.434028,0.27861 c -0.180766,0.42723 -0.245714,0.7156 -0.130492,0.77687 0.114015,0.0606 0.319896,-0.14737 0.578704,-0.52338 a 7.4042709,7.4042709 0 0 0 0.472122,0.21134 c -0.119086,0.44722 -0.143133,0.74141 -0.02067,0.78599 0.122071,0.0444 0.29837,-0.1925 0.503934,-0.60545 a 7.4042709,7.4042709 0 0 0 0.492993,0.15298 c -0.05533,0.45785 -0.03806,0.75145 0.08916,0.7785 0.126648,0.0269 0.267562,-0.23091 0.413157,-0.66584 a 7.4042709,7.4042709 0 0 0 0.511027,0.0746 c 0.0086,0.46396 0.06655,0.75379 0.196751,0.76289 0.129006,0.009 0.232725,-0.2653 0.316301,-0.71527 a 7.4042709,7.4042709 0 0 0 0.354396,0.0128 v -5.65898 a 1.751511,1.751511 0 0 1 -1.75151,-1.75151 1.751511,1.751511 0 0 1 1.751511,-1.75151 v -6.29928 z m -2.186148,3.0153 a 1.0946945,1.0946945 0 0 1 1.094593,1.09459 1.0946945,1.0946945 0 0 1 -1.094593,1.0948 1.0946945,1.0946945 0 0 1 -1.094796,-1.0948 1.0946945,1.0946945 0 0 1 1.094796,-1.09459 z m -2.367499,3.95751 a 1.0946945,1.0946945 0 0 1 1.094593,1.0948 1.0946945,1.0946945 0 0 1 -1.094593,1.09459 1.0946945,1.0946945 0 0 1 -1.094797,-1.09459 1.0946945,1.0946945 0 0 1 1.094797,-1.0948 z m 2.367499,3.92429 a 1.0946945,1.0946945 0 0 1 1.094593,1.09459 1.0946945,1.0946945 0 0 1 -1.094593,1.0948 1.0946945,1.0946945 0 0 1 -1.094796,-1.0948 1.0946945,1.0946945 0 0 1 1.094796,-1.09459 z"
           id="path5925" />
        <path
           inkscape:connector-curvature="0"
           id="path5927"
           d="m 94.212793,246.73058 c 0,0 0.318155,-2.26243 0.61274,-0.0236 0.294588,2.23886 -0.61274,0.0236 -0.61274,0.0236 z"
           style="fill:#e6e6e6;fill-opacity:1;stroke:none;stroke-width:0.08757555px;stroke-linecap:butt;stroke-linejoin:miter;stroke-opacity:1" />
      </g>
      <ellipse
         ry="2.9564869"
         rx="2.9564872"
         cy="247.53241"
         cx="58.225483"
         id="path5958"
         style="opacity:1;vector-effect:none;fill:#666666;fill-opacity:1;stroke:#666666;stroke-width:2.02452588;stroke-linecap:round;stroke-linejoin:round;stroke-miterlimit:4;stroke-dasharray:none;stroke-dashoffset:0;stroke-opacity:1" />
      <path
         inkscape:transform-center-y="4.2797463"
         inkscape:transform-center-x="-20.682362"
         sodipodi:nodetypes="cszccccccc"
         inkscape:connector-curvature="0"
         id="ellipse5970"
         d="m 57.885973,243.72294 c -2.159902,0.0624 -3.861027,1.88904 -3.799568,4.08003 0.06146,2.19099 1.124353,3.13603 4.106084,4.13193 2.981733,0.99591 24.135253,5.9075 34.447227,8.52326 0.126323,0.0355 0.253489,0.0679 0.381383,0.097 0.679371,0.1764 1.435838,0.23816 2.08009,0.22687 4.415396,-0.12751 7.892931,-3.86172 7.767341,-8.34068 -0.12569,-4.47895 -3.806914,-8.00653 -8.222312,-7.87916 -12.853953,0.0148 -25.688486,-0.61644 -36.760234,-0.83935 z"
         style="opacity:1;vector-effect:none;fill:none;fill-opacity:1;stroke:#4f377b;stroke-width:1.32291663;stroke-linecap:round;stroke-linejoin:round;stroke-miterlimit:4;stroke-dasharray:none;stroke-dashoffset:0;stroke-opacity:1" />
      <path
         inkscape:connector-curvature="0"
         id="path5978"
         d="m 95.015467,252.29766 16.648513,0.69359"
         style="fill:none;stroke:#4f377b;stroke-width:2.64583325;stroke-linecap:round;stroke-linejoin:miter;stroke-miterlimit:4;stroke-dasharray:none;stroke-opacity:1" />
    </g>
  </g>
</svg>
